<svg width="788" height="454" viewBox="0 0 788 454" fill="none" xmlns="http://www.w3.org/2000/svg">
<g clip-path="url(#clip0)">
<path d="M406.691 12.9338C410.263 12.9338 413.158 10.0385 413.158 6.46689C413.158 2.89533 410.263 0 406.691 0C403.12 0 400.225 2.89533 400.225 6.46689C400.225 10.0385 403.12 12.9338 406.691 12.9338Z" fill="#27AE60"/>
<path d="M406.691 38.7072C410.263 38.7072 413.158 35.8119 413.158 32.2403C413.158 28.6688 410.263 25.7734 406.691 25.7734C403.12 25.7734 400.225 28.6688 400.225 32.2403C400.225 35.8119 403.12 38.7072 406.691 38.7072Z" fill="#27AE60"/>
<path d="M433.691 12.9338C437.263 12.9338 440.158 10.0385 440.158 6.46689C440.158 2.89533 437.263 0 433.691 0C430.12 0 427.225 2.89533 427.225 6.46689C427.225 10.0385 430.12 12.9338 433.691 12.9338Z" fill="#27AE60"/>
<path d="M433.691 38.7072C437.263 38.7072 440.158 35.8119 440.158 32.2403C440.158 28.6688 437.263 25.7734 433.691 25.7734C430.12 25.7734 427.225 28.6688 427.225 32.2403C427.225 35.8119 430.12 38.7072 433.691 38.7072Z" fill="#27AE60"/>
<path d="M460.691 12.9338C464.263 12.9338 467.158 10.0385 467.158 6.46689C467.158 2.89533 464.263 0 460.691 0C457.12 0 454.225 2.89533 454.225 6.46689C454.225 10.0385 457.12 12.9338 460.691 12.9338Z" fill="#27AE60"/>
<path d="M460.691 38.7072C464.263 38.7072 467.158 35.8119 467.158 32.2403C467.158 28.6688 464.263 25.7734 460.691 25.7734C457.12 25.7734 454.225 28.6688 454.225 32.2403C454.225 35.8119 457.12 38.7072 460.691 38.7072Z" fill="#27AE60"/>
<path d="M460.691 64.4802C464.263 64.4802 467.158 61.5848 467.158 58.0133C467.158 54.4417 464.263 51.5464 460.691 51.5464C457.12 51.5464 454.225 54.4417 454.225 58.0133C454.225 61.5848 457.12 64.4802 460.691 64.4802Z" fill="#27AE60"/>
<path d="M460.691 90.2536C464.263 90.2536 467.158 87.3583 467.158 83.7867C467.158 80.2151 464.263 77.3198 460.691 77.3198C457.12 77.3198 454.225 80.2151 454.225 83.7867C454.225 87.3583 457.12 90.2536 460.691 90.2536Z" fill="#27AE60"/>
<path d="M487.691 12.9338C491.263 12.9338 494.158 10.0385 494.158 6.46689C494.158 2.89533 491.263 0 487.691 0C484.12 0 481.225 2.89533 481.225 6.46689C481.225 10.0385 484.12 12.9338 487.691 12.9338Z" fill="#27AE60"/>
<path d="M487.691 38.7072C491.263 38.7072 494.158 35.8119 494.158 32.2403C494.158 28.6688 491.263 25.7734 487.691 25.7734C484.12 25.7734 481.225 28.6688 481.225 32.2403C481.225 35.8119 484.12 38.7072 487.691 38.7072Z" fill="#27AE60"/>
<path d="M487.691 64.4802C491.263 64.4802 494.158 61.5848 494.158 58.0133C494.158 54.4417 491.263 51.5464 487.691 51.5464C484.12 51.5464 481.225 54.4417 481.225 58.0133C481.225 61.5848 484.12 64.4802 487.691 64.4802Z" fill="#27AE60"/>
<path d="M487.691 90.2536C491.263 90.2536 494.158 87.3583 494.158 83.7867C494.158 80.2151 491.263 77.3198 487.691 77.3198C484.12 77.3198 481.225 80.2151 481.225 83.7867C481.225 87.3583 484.12 90.2536 487.691 90.2536Z" fill="#27AE60"/>
<path d="M514.691 12.9338C518.263 12.9338 521.158 10.0385 521.158 6.46689C521.158 2.89533 518.263 0 514.691 0C511.12 0 508.225 2.89533 508.225 6.46689C508.225 10.0385 511.12 12.9338 514.691 12.9338Z" fill="#27AE60"/>
<path d="M514.691 38.7072C518.263 38.7072 521.158 35.8119 521.158 32.2403C521.158 28.6688 518.263 25.7734 514.691 25.7734C511.12 25.7734 508.225 28.6688 508.225 32.2403C508.225 35.8119 511.12 38.7072 514.691 38.7072Z" fill="#27AE60"/>
<path d="M541.691 12.9338C545.263 12.9338 548.158 10.0385 548.158 6.46689C548.158 2.89533 545.263 0 541.691 0C538.12 0 535.225 2.89533 535.225 6.46689C535.225 10.0385 538.12 12.9338 541.691 12.9338Z" fill="#27AE60"/>
<path d="M541.691 38.7072C545.263 38.7072 548.158 35.8119 548.158 32.2403C548.158 28.6688 545.263 25.7734 541.691 25.7734C538.12 25.7734 535.225 28.6688 535.225 32.2403C535.225 35.8119 538.12 38.7072 541.691 38.7072Z" fill="#27AE60"/>
<path d="M739.113 341.258H691.104C691.104 342.638 641.624 343.758 641.624 343.758C640.847 344.343 640.139 345.014 639.514 345.758C637.634 348 636.607 350.833 636.613 353.758V355.758C636.615 359.073 637.932 362.252 640.276 364.596C642.62 366.94 645.798 368.257 649.113 368.258H739.113C742.428 368.255 745.605 366.938 747.949 364.594C750.293 362.25 751.61 359.073 751.613 355.758V353.758C751.609 350.445 750.29 347.268 747.947 344.925C745.604 342.581 742.427 341.263 739.113 341.258V341.258Z" fill="#3F3D56"/>
<path d="M701.109 367.762H688.109V451.762H701.109V367.762Z" fill="#3F3D56"/>
<path d="M738.109 451.305C738.109 452.71 718.41 451.848 694.109 451.848C669.809 451.848 650.109 452.71 650.109 451.305C650.109 449.9 669.809 438.762 694.109 438.762C718.41 438.762 738.109 449.9 738.109 451.305Z" fill="#3F3D56"/>
<path d="M629.101 440.257L616.841 440.256L611.008 392.968L629.103 392.969L629.101 440.257Z" fill="#FFB8B8"/>
<path d="M608.082 436.753H631.726V451.64H593.195C593.195 447.692 594.764 443.906 597.556 441.114C600.347 438.322 604.134 436.753 608.082 436.753V436.753Z" fill="#2F2E41"/>
<path d="M609.963 433.414L598.266 429.743L606.858 382.878L624.122 388.296L609.963 433.414Z" fill="#FFB8B8"/>
<path d="M590.958 423.779L613.517 430.859L609.06 445.062L572.297 433.526C572.882 431.66 573.829 429.929 575.083 428.429C576.338 426.93 577.876 425.693 579.609 424.788C581.341 423.883 583.236 423.328 585.183 423.155C587.13 422.982 589.092 423.194 590.958 423.779V423.779Z" fill="#2F2E41"/>
<path d="M706.281 333.061C705.998 330.678 705.489 328.328 704.761 326.041L702.471 323.161L696.511 315.681L696.251 315.691C695.811 315.711 693.981 315.811 691.151 316.031H691.121C689.371 316.171 687.231 316.351 684.801 316.581C684.161 316.651 683.491 316.711 682.801 316.781V327.221H695.301C695.908 327.222 696.495 327.443 696.951 327.845C697.407 328.246 697.702 328.799 697.781 329.401C697.791 329.511 697.801 329.611 697.801 329.721C697.801 330.384 697.537 331.02 697.068 331.489C696.6 331.957 695.964 332.221 695.301 332.221H622.701C621.776 332.835 620.888 333.503 620.041 334.221C617.483 336.201 615.64 338.96 614.791 342.081C610.551 360.721 602.821 395.481 600.541 405.691C600.375 406.46 600.413 407.259 600.65 408.01C600.886 408.76 601.314 409.436 601.891 409.971C602.316 410.368 602.816 410.677 603.361 410.881L612.381 414.261C612.752 414.398 613.138 414.489 613.531 414.531C613.581 414.531 613.621 414.541 613.671 414.541C613.764 414.55 613.857 414.553 613.951 414.551C614.863 414.548 615.753 414.269 616.504 413.751C617.255 413.234 617.832 412.502 618.161 411.651L625.281 392.971L636.251 364.171L640.591 352.781C645.621 353.961 687.821 363.301 701.951 348.251C703.345 346.768 704.444 345.034 705.191 343.141C706.38 339.922 706.755 336.46 706.281 333.061Z" fill="#2F2E41"/>
<path d="M718.52 335.781C718.3 334.891 718.05 333.971 717.76 333.041L709.51 322.681L709.25 322.691C708.73 322.721 706.26 322.851 702.47 323.161C698.17 323.521 692.16 324.101 685.41 325.011C685.21 325.031 685 325.061 684.8 325.091C684.14 325.181 683.47 325.271 682.8 325.371V327.221H695.3C695.907 327.222 696.494 327.443 696.95 327.845C697.406 328.246 697.701 328.799 697.78 329.401C697.79 329.511 697.8 329.611 697.8 329.721C697.8 330.384 697.536 331.02 697.067 331.489C696.599 331.957 695.963 332.221 695.3 332.221H651.12C649.19 332.851 647.33 333.511 645.55 334.221C636.21 337.921 629.22 342.771 627.79 349.081C627.31 351.201 626.78 353.531 626.22 356.011C624.14 365.231 621.61 376.521 619.32 386.781V386.791C618.85 388.911 618.38 390.971 617.93 392.971C616.02 401.571 614.4 408.861 613.54 412.691C613.52 412.801 613.5 412.901 613.48 413.011V413.031C613.38 413.806 613.476 414.593 613.76 415.321L613.77 415.331V415.341C614.045 416.038 614.492 416.654 615.07 417.131C615.456 417.45 615.892 417.703 616.36 417.881L625.38 421.261C625.882 421.449 626.413 421.547 626.95 421.551C627.701 421.553 628.441 421.364 629.1 421.001C630.045 420.489 630.776 419.655 631.16 418.651L650.58 367.691L653.59 359.781C658.62 360.961 700.82 370.291 714.95 355.251C717.741 352.23 719.334 348.294 719.43 344.181C719.528 341.352 719.222 338.523 718.52 335.781V335.781Z" fill="#2F2E41"/>
<path d="M717.411 247.561C717.251 247.371 717.081 247.181 716.901 247.001C714.238 244.201 710.949 242.072 707.304 240.787C703.659 239.503 699.762 239.1 695.931 239.611C692.59 240.05 689.28 240.702 686.021 241.561C681.813 242.643 677.959 244.805 674.841 247.831C672.413 250.186 670.5 253.02 669.224 256.153C667.949 259.286 667.338 262.65 667.431 266.031C667.471 267.401 667.481 268.801 667.461 270.221C667.461 270.881 667.451 271.551 667.441 272.221H677.301C677.729 272.22 678.156 272.27 678.571 272.371C679.775 272.659 680.846 273.343 681.613 274.313C682.381 275.284 682.799 276.484 682.801 277.721V324.241C683.471 324.431 684.141 324.621 684.801 324.821C685.011 324.891 685.211 324.951 685.411 325.011C685.641 325.081 685.871 325.151 686.091 325.221C688.121 325.851 690.104 326.518 692.041 327.221H695.301C695.909 327.222 696.495 327.444 696.951 327.845C697.408 328.246 697.703 328.799 697.781 329.401C698.461 329.671 699.121 329.941 699.771 330.211C702.081 331.171 704.271 332.131 706.281 333.061C708.991 334.301 711.401 335.481 713.421 336.511C714.057 336.835 714.758 337.006 715.471 337.011C716.407 337.008 717.318 336.707 718.071 336.151C718.228 336.036 718.378 335.912 718.521 335.781C719.056 335.28 719.461 334.655 719.7 333.961C719.938 333.267 720.004 332.526 719.891 331.801C718.859 323.946 718.558 316.012 718.991 308.101C719.271 301.451 719.871 294.631 720.651 288.041C721.071 284.471 721.541 280.971 722.031 277.601C722.502 274.381 723.002 271.291 723.491 268.371C724.134 264.669 723.92 260.868 722.866 257.261C721.813 253.653 719.946 250.335 717.411 247.561Z" fill="#27AE60"/>
<path d="M676.42 248.381C675.907 248.161 675.379 247.977 674.84 247.831C672.175 247.113 669.341 247.378 666.855 248.577C664.37 249.776 662.398 251.829 661.3 254.361L654.43 270.221L653.57 272.221H677.3C677.728 272.22 678.155 272.27 678.57 272.371L679.37 270.521L682.41 263.501C683.618 260.701 683.665 257.537 682.542 254.702C681.419 251.868 679.218 249.594 676.42 248.381V248.381Z" fill="#27AE60"/>
<path d="M697.756 231.803C711.321 231.803 722.317 220.806 722.317 207.242C722.317 193.677 711.321 182.681 697.756 182.681C684.192 182.681 673.195 193.677 673.195 207.242C673.195 220.806 684.192 231.803 697.756 231.803Z" fill="#FFB8B8"/>
<path d="M722.031 277.601L708.011 277.981L706.991 287.831L706.761 290.111L684.801 299.971L682.801 300.871V318.401L684.801 317.831L691.121 316.031H691.151L718.991 308.101L719.311 308.011C721.56 307.361 723.54 306.003 724.956 304.139C726.372 302.274 727.149 300.002 727.171 297.661L727.241 286.031L727.301 277.461L722.031 277.601Z" fill="#FFB8B8"/>
<path d="M726.591 258.121C726.498 256.614 726.11 255.139 725.447 253.782C724.785 252.424 723.862 251.211 722.73 250.21C720.445 248.19 717.451 247.159 714.406 247.346C711.361 247.533 708.516 248.922 706.495 251.207C704.474 253.492 703.444 256.487 703.631 259.531L705.161 284.491C705.202 285.148 705.388 285.788 705.704 286.365C706.02 286.942 706.46 287.443 706.991 287.831C707.836 288.462 708.879 288.77 709.931 288.701L720.651 288.041L723.901 287.841C724.493 287.812 725.073 287.663 725.606 287.404C726.139 287.144 726.613 286.779 727.001 286.331C727.087 286.236 727.167 286.136 727.241 286.031C727.877 285.181 728.189 284.131 728.121 283.071L726.591 258.121Z" fill="#27AE60"/>
<path d="M686.091 325.221H684.801V325.091C684.141 325.181 683.471 325.271 682.801 325.371V327.221H692.041C690.101 326.521 688.117 325.855 686.091 325.221ZM686.091 325.221H684.801V325.091C684.141 325.181 683.471 325.271 682.801 325.371V327.221H692.041C690.101 326.521 688.117 325.855 686.091 325.221ZM695.301 325.221H684.801V277.721C684.797 276.095 684.266 274.514 683.287 273.216C682.307 271.917 680.933 270.972 679.371 270.521C678.699 270.319 678.002 270.218 677.301 270.221H588.301C586.312 270.224 584.406 271.015 583 272.421C581.594 273.827 580.803 275.733 580.801 277.721V326.721C580.801 328.71 581.592 330.617 582.998 332.024C584.405 333.43 586.312 334.221 588.301 334.221H695.301C696.409 334.219 697.477 333.809 698.301 333.07C699.126 332.33 699.649 331.312 699.771 330.211C699.791 330.049 699.801 329.885 699.801 329.721C699.799 328.528 699.324 327.385 698.481 326.541C697.637 325.698 696.494 325.223 695.301 325.221H695.301ZM697.801 329.721C697.801 330.384 697.537 331.02 697.068 331.489C696.599 331.958 695.964 332.221 695.301 332.221H588.301C586.842 332.22 585.444 331.641 584.413 330.609C583.381 329.578 582.802 328.18 582.801 326.721V277.721C582.802 276.263 583.381 274.864 584.413 273.833C585.444 272.802 586.842 272.222 588.301 272.221H677.301C677.729 272.22 678.155 272.27 678.571 272.371C679.774 272.659 680.846 273.343 681.613 274.313C682.38 275.284 682.799 276.484 682.801 277.721V327.221H695.301C695.908 327.222 696.495 327.444 696.951 327.845C697.407 328.246 697.702 328.799 697.781 329.401C697.79 329.511 697.801 329.611 697.801 329.721H697.801ZM686.091 325.221H684.801V325.091C684.141 325.181 683.471 325.271 682.801 325.371V327.221H692.041C690.101 326.521 688.117 325.855 686.091 325.221Z" fill="#3F3D56"/>
<path d="M632.797 308.223C636.111 308.223 638.797 305.536 638.797 302.223C638.797 298.909 636.111 296.223 632.797 296.223C629.483 296.223 626.797 298.909 626.797 302.223C626.797 305.536 629.483 308.223 632.797 308.223Z" fill="#27AE60"/>
<path d="M692.512 197.499C686.807 202.595 679.159 208.065 672.173 204.331C667.586 201.88 665.544 196.503 666.615 191.414C668.542 182.262 676.454 177.317 684.115 173.319C694.073 168.122 705.063 163.59 716.215 164.941C727.367 166.292 738.262 175.507 737.735 186.728C737.312 195.752 729.943 204.17 732.276 212.897C734.624 221.68 745.284 225.081 754.365 225.528C763.446 225.975 773.442 225.201 780.645 230.747C789.834 237.823 789.687 252.62 783.145 262.197C776.604 271.774 765.557 277.162 754.707 281.259C740.331 286.687 724.529 290.609 709.69 286.618C694.851 282.628 681.86 268.391 684.036 253.179C684.955 246.754 688.336 240.986 691.598 235.375C694.86 229.763 698.142 223.912 698.827 217.458C699.398 212.079 697.689 206.141 693.722 202.677C693.004 202.073 692.495 201.258 692.27 200.347C692.044 199.437 692.112 198.478 692.466 197.61L692.512 197.499Z" fill="#2F2E41"/>
<path d="M40.4297 353.758V355.758C40.4326 359.073 41.7504 362.25 44.094 364.594C46.4376 366.938 49.6154 368.255 52.9297 368.258H142.93C146.245 368.257 149.423 366.94 151.767 364.596C154.111 362.252 155.428 359.073 155.43 355.758V353.758C155.436 350.833 154.409 348 152.529 345.758C151.904 345.014 151.196 344.343 150.419 343.758C150.419 343.758 100.939 342.638 100.939 341.258H52.9297C49.6159 341.263 46.4391 342.581 44.0959 344.925C41.7527 347.268 40.4343 350.445 40.4297 353.758V353.758Z" fill="#3F3D56"/>
<path d="M90.9355 451.762H103.936L103.936 367.762H90.9355L90.9355 451.762Z" fill="#3F3D56"/>
<path d="M53.9355 451.305C53.9355 452.71 73.635 451.848 97.9355 451.848C122.236 451.848 141.936 452.71 141.936 451.305C141.936 449.9 122.236 438.762 97.9355 438.762C73.635 438.762 53.9355 449.9 53.9355 451.305Z" fill="#3F3D56"/>
<path d="M163.529 441.018H175.789L181.621 393.73L163.527 393.731L163.529 441.018Z" fill="#FFB8B8"/>
<path d="M199.434 452.401L160.903 452.403L160.902 437.516L184.546 437.515C188.494 437.514 192.281 439.083 195.073 441.874C197.865 444.666 199.433 448.453 199.434 452.401L199.434 452.401Z" fill="#2F2E41"/>
<path d="M182.669 434.176L194.366 430.505L185.774 383.64L168.51 389.058L182.669 434.176Z" fill="#FFB8B8"/>
<path d="M220.332 434.288L183.569 445.824L179.112 431.621L201.671 424.541C205.438 423.359 209.52 423.722 213.02 425.549C216.52 427.377 219.15 430.52 220.332 434.288L220.332 434.288Z" fill="#2F2E41"/>
<path d="M174.466 412.411L152.039 353.54C147.008 354.722 104.812 364.059 90.6801 349.012C85.8368 343.854 84.8923 336.383 87.8725 326.804L96.1201 316.439L96.3764 316.453C99.4948 316.617 172.812 320.727 177.838 342.842C182.075 361.486 189.814 396.247 192.085 406.457C192.315 407.515 192.158 408.62 191.641 409.572C191.125 410.523 190.283 411.257 189.271 411.641L180.252 415.022C179.749 415.212 179.217 415.309 178.68 415.309C177.767 415.308 176.875 415.031 176.123 414.514C175.371 413.997 174.793 413.264 174.466 412.411V412.411Z" fill="#2F2E41"/>
<path d="M161.466 419.411L139.039 360.54C134.007 361.722 91.8124 371.058 77.6801 356.012C72.8368 350.854 71.8923 343.383 74.8725 333.804L83.1201 323.439L83.3764 323.453C86.4948 323.617 159.812 327.727 164.838 349.842C169.075 368.486 176.814 403.247 179.085 413.457C179.315 414.515 179.158 415.62 178.641 416.572C178.125 417.523 177.283 418.257 176.271 418.641L167.252 422.022C166.749 422.212 166.217 422.309 165.68 422.309C164.767 422.308 163.875 422.031 163.123 421.514C162.371 420.997 161.793 420.264 161.466 419.411V419.411Z" fill="#2F2E41"/>
<path d="M141.293 305.193C137.969 305.192 134.702 304.328 131.812 302.685C128.923 301.042 126.509 298.677 124.808 295.822L117.686 283.756L134.615 274.503L141.803 284.359L190.577 279.22C190.814 278.791 191.081 278.378 191.376 277.986C192.312 276.755 193.497 275.734 194.853 274.991C196.21 274.247 197.708 273.798 199.249 273.672C200.798 273.539 202.357 273.739 203.822 274.259C205.287 274.779 206.623 275.606 207.742 276.684C209.536 278.405 210.695 280.68 211.033 283.142C211.37 285.604 210.866 288.108 209.602 290.248C208.811 291.581 207.747 292.732 206.48 293.625C205.213 294.518 203.772 295.134 202.251 295.431C200.729 295.729 199.162 295.702 197.652 295.351C196.142 295.001 194.723 294.336 193.488 293.399C193.202 293.18 192.928 292.946 192.666 292.699L145.951 304.609C144.429 304.997 142.864 305.194 141.293 305.193V305.193Z" fill="#FFB8B8"/>
<path d="M74.5543 336.912C73.8794 336.426 73.3522 335.762 73.0312 334.994C72.7102 334.227 72.608 333.385 72.7358 332.563C75.5182 314.22 72.3168 287.944 69.141 269.131C68.4909 265.313 68.7439 261.397 69.8796 257.695C71.0153 253.993 73.0023 250.609 75.6813 247.813C78.3602 245.017 81.6568 242.888 85.3068 241.595C88.9568 240.302 92.8589 239.882 96.7004 240.369C100.043 240.81 103.353 241.463 106.613 242.323V242.323C112.028 243.687 116.817 246.852 120.194 251.299C123.572 255.745 125.335 261.209 125.195 266.791C124.72 284.945 128.407 307.596 130.014 316.492C130.123 317.103 130.106 317.73 129.962 318.334C129.819 318.938 129.552 319.506 129.18 320.003C128.814 320.494 128.35 320.904 127.817 321.205C127.284 321.506 126.694 321.693 126.084 321.753C108.276 323.57 89.0721 332.255 79.2098 337.269C78.576 337.596 77.8735 337.768 77.1603 337.77C76.2227 337.767 75.3102 337.467 74.5543 336.912Z" fill="#27AE60"/>
<path d="M122.626 289.6C122.076 289.384 121.574 289.061 121.149 288.649C120.725 288.238 120.386 287.746 120.153 287.203L110.221 264.26C109.62 262.874 109.298 261.383 109.273 259.872C109.248 258.362 109.521 256.861 110.077 255.456C110.632 254.051 111.46 252.769 112.511 251.683C113.562 250.598 114.817 249.73 116.203 249.13C117.59 248.53 119.081 248.209 120.592 248.185C122.103 248.162 123.604 248.436 125.008 248.993C126.413 249.55 127.694 250.378 128.779 251.43C129.863 252.482 130.73 253.738 131.329 255.125L141.26 278.067C141.733 279.163 141.751 280.401 141.312 281.51C140.873 282.619 140.012 283.509 138.918 283.984L126.07 289.546C125.528 289.782 124.945 289.909 124.354 289.918C123.763 289.928 123.176 289.82 122.627 289.6H122.626Z" fill="#27AE60"/>
<path d="M94.8735 232.564C108.438 232.564 119.435 221.568 119.435 208.003C119.435 194.439 108.438 183.442 94.8735 183.442C81.3088 183.442 70.3125 194.439 70.3125 208.003C70.3125 221.568 81.3088 232.564 94.8735 232.564Z" fill="#FFB8B8"/>
<path d="M80.0312 229.824C79.6833 230.225 79.2584 230.553 78.7816 230.788C78.3048 231.022 77.7857 231.159 77.2552 231.189C76.7247 231.22 76.1935 231.144 75.6929 230.965C75.1924 230.787 74.7327 230.51 74.3411 230.151C68.8644 225.717 64.5208 220.045 61.6688 213.602C58.4757 205.991 58.0078 196.703 61.6418 189.569C64.7138 183.538 70.2284 179.699 75.7337 176.562C77.8442 175.232 80.1571 174.254 82.5816 173.667C83.8061 173.389 85.0754 173.371 86.3075 173.613C87.5396 173.856 88.7074 174.353 89.7355 175.074C90.8265 175.904 91.6708 177.015 92.1779 178.288C92.685 179.562 92.8356 180.949 92.6136 182.301C95.1318 178.984 98.5267 176.436 102.416 174.945C104.802 173.918 107.468 173.739 109.969 174.439C113.505 175.619 116.122 179.189 117.578 183.025C118.756 185.962 119.187 189.145 118.834 192.289C118.679 193.79 118.221 195.244 117.488 196.563C116.754 197.882 115.759 199.038 114.565 199.96C111.681 201.95 107.965 201.748 104.611 200.867C101.258 199.987 98.0026 198.493 94.5902 198.077C91.1778 197.661 87.396 198.563 85.3629 201.607C83.9311 203.75 83.5935 206.574 83.3014 209.265L81.7819 223.264C81.6746 225.267 81.2431 227.239 80.5043 229.103C80.3793 229.363 80.2202 229.606 80.0312 229.824V229.824Z" fill="#2F2E41"/>
<path d="M168.868 381.094H128.995C128.349 381.096 127.711 380.951 127.13 380.669C126.548 380.387 126.039 379.976 125.64 379.468C125.232 378.952 124.948 378.351 124.808 377.709C124.668 377.067 124.677 376.401 124.833 375.763C128.563 360.141 128.562 343.86 124.833 328.238C124.677 327.6 124.668 326.934 124.808 326.292C124.948 325.65 125.232 325.049 125.64 324.533C126.039 324.025 126.548 323.614 127.13 323.332C127.711 323.051 128.349 322.905 128.995 322.907H168.868C169.887 322.909 170.872 323.273 171.647 323.933C172.423 324.593 172.94 325.508 173.105 326.513C175.705 343.405 175.705 360.596 173.105 377.488C172.94 378.494 172.423 379.408 171.647 380.068C170.872 380.728 169.887 381.092 168.868 381.094V381.094Z" fill="#CCCCCC"/>
<path d="M138.266 344.584V343.412C138.266 342.617 138.583 341.854 139.145 341.292C139.708 340.729 140.47 340.413 141.266 340.412H162.189C162.985 340.413 163.747 340.729 164.31 341.292C164.872 341.854 165.188 342.617 165.189 343.412V344.584C165.188 345.379 164.872 346.142 164.31 346.704C163.747 347.267 162.985 347.583 162.189 347.584H141.266C140.47 347.583 139.708 347.267 139.145 346.704C138.583 346.142 138.266 345.379 138.266 344.584V344.584Z" fill="white"/>
<path d="M138.266 356.929V355.756C138.266 354.961 138.583 354.198 139.145 353.636C139.708 353.074 140.47 352.757 141.266 352.756H162.189C162.985 352.757 163.747 353.074 164.31 353.636C164.872 354.198 165.188 354.961 165.189 355.756V356.929C165.188 357.724 164.872 358.487 164.31 359.049C163.747 359.611 162.985 359.928 162.189 359.929H141.266C140.47 359.928 139.708 359.611 139.145 359.049C138.583 358.487 138.266 357.724 138.266 356.929Z" fill="white"/>
<path d="M151.128 308.841C150.714 308.317 150.425 307.705 150.282 307.053C150.14 306.4 150.149 305.724 150.307 305.075C154.099 289.196 154.099 272.648 150.307 256.769C150.149 256.12 150.14 255.444 150.282 254.791C150.425 254.139 150.714 253.527 151.128 253.003C151.533 252.486 152.051 252.069 152.642 251.783C153.233 251.496 153.882 251.349 154.538 251.351H195.066C196.101 251.353 197.103 251.722 197.891 252.393C198.68 253.064 199.205 253.994 199.372 255.016C202.016 272.185 202.016 289.659 199.372 306.828C199.205 307.85 198.68 308.78 197.891 309.451C197.103 310.122 196.101 310.491 195.066 310.493H154.538C153.882 310.495 153.233 310.348 152.642 310.061C152.051 309.775 151.533 309.358 151.128 308.841Z" fill="#27AE60"/>
<path d="M187.246 273.172H165.896C165.101 273.171 164.339 272.855 163.776 272.293C163.214 271.73 162.897 270.968 162.896 270.172V268.898C162.897 268.103 163.214 267.34 163.776 266.778C164.339 266.216 165.101 265.899 165.896 265.898H187.246C188.041 265.899 188.804 266.216 189.366 266.778C189.929 267.34 190.245 268.103 190.246 268.898V270.172C190.245 270.968 189.929 271.73 189.366 272.293C188.804 272.855 188.041 273.171 187.246 273.172V273.172Z" fill="white"/>
<path d="M187.246 285.72H165.896C165.101 285.719 164.339 285.403 163.776 284.84C163.214 284.278 162.897 283.515 162.896 282.72V281.446C162.897 280.65 163.214 279.888 163.776 279.325C164.339 278.763 165.101 278.447 165.896 278.446H187.246C188.041 278.447 188.804 278.763 189.366 279.325C189.929 279.888 190.245 280.65 190.246 281.446V282.72C190.245 283.515 189.929 284.278 189.366 284.84C188.804 285.403 188.041 285.719 187.246 285.72V285.72Z" fill="white"/>
<path d="M132.534 330.839C131.074 330.329 129.737 329.517 128.611 328.456C127.486 327.395 126.596 326.109 126 324.682C125.862 324.348 125.743 324.008 125.641 323.663L73.3188 308.77C71.0705 308.12 69.0913 306.763 67.6752 304.9C66.2591 303.037 65.4815 300.767 65.4578 298.427L65.3301 278.225L84.616 278.741L85.8728 290.876L130.613 310.962C131.035 310.711 131.473 310.489 131.925 310.298H131.925C133.573 309.607 135.365 309.327 137.145 309.484C138.925 309.64 140.641 310.227 142.143 311.194C143.646 312.162 144.89 313.481 145.769 315.037C146.648 316.593 147.135 318.339 147.188 320.125C147.241 321.912 146.858 323.684 146.073 325.289C145.287 326.895 144.123 328.285 142.681 329.339C141.238 330.394 139.56 331.082 137.793 331.343C136.025 331.604 134.22 331.432 132.534 330.839V330.839Z" fill="#FFB8B8"/>
<path d="M65.6291 287.094C65.2363 286.652 64.9351 286.136 64.7428 285.577C64.5506 285.018 64.4712 284.426 64.5093 283.836L66.0433 258.883C66.1335 257.374 66.5205 255.898 67.182 254.538C67.8435 253.179 68.7665 251.963 69.8983 250.961C71.0301 249.959 72.3484 249.189 73.7778 248.697C75.2073 248.205 76.7197 247.999 78.2287 248.092C79.7376 248.185 81.2134 248.574 82.5717 249.238C83.93 249.902 85.144 250.827 86.1444 251.961C87.1448 253.094 87.9119 254.414 88.4017 255.844C88.8916 257.274 89.0947 258.787 88.9993 260.296L87.4656 285.248C87.3908 286.439 86.8469 287.551 85.9531 288.341C85.0594 289.132 83.8888 289.535 82.698 289.463L68.7245 288.604C68.1342 288.57 67.5567 288.418 67.0254 288.159C66.4941 287.9 66.0195 287.538 65.6292 287.094H65.6291Z" fill="#27AE60"/>
<path d="M290.521 153.064H208.521C206.135 153.061 203.848 152.112 202.161 150.425C200.473 148.738 199.524 146.45 199.521 144.064V55.064C199.524 52.6779 200.473 50.3903 202.161 48.703C203.848 47.0158 206.135 46.0667 208.521 46.064H290.521C292.908 46.0667 295.195 47.0158 296.882 48.703C298.57 50.3903 299.519 52.6779 299.521 55.064V144.064C299.519 146.45 298.57 148.738 296.882 150.425C295.195 152.112 292.908 153.061 290.521 153.064V153.064ZM208.521 48.064C206.666 48.066 204.886 48.8042 203.574 50.1165C202.262 51.4288 201.524 53.2081 201.521 55.064V144.064C201.524 145.92 202.262 147.699 203.574 149.011C204.886 150.324 206.666 151.062 208.521 151.064H290.521C292.377 151.062 294.157 150.324 295.469 149.011C296.781 147.699 297.519 145.92 297.521 144.064V55.064C297.519 53.2081 296.781 51.4288 295.469 50.1165C294.157 48.8042 292.377 48.066 290.521 48.064H208.521Z" fill="#3F3D56"/>
<path d="M440.521 153.064H358.521C356.135 153.061 353.848 152.112 352.161 150.425C350.473 148.738 349.524 146.45 349.521 144.064V55.064C349.524 52.6779 350.473 50.3903 352.161 48.703C353.848 47.0158 356.135 46.0667 358.521 46.064H440.521C442.908 46.0667 445.195 47.0158 446.882 48.703C448.57 50.3903 449.519 52.6779 449.521 55.064V144.064C449.519 146.45 448.57 148.738 446.882 150.425C445.195 152.112 442.908 153.061 440.521 153.064V153.064ZM358.521 48.064C356.666 48.066 354.886 48.8042 353.574 50.1165C352.262 51.4288 351.524 53.2081 351.521 55.064V144.064C351.524 145.92 352.262 147.699 353.574 149.011C354.886 150.324 356.666 151.062 358.521 151.064H440.521C442.377 151.062 444.157 150.324 445.469 149.011C446.781 147.699 447.519 145.92 447.521 144.064V55.064C447.519 53.2081 446.781 51.4288 445.469 50.1165C444.157 48.8042 442.377 48.066 440.521 48.064H358.521Z" fill="#3F3D56"/>
<path d="M225.037 83.064H217.037C215.844 83.0626 214.7 82.5881 213.857 81.7445C213.013 80.9008 212.538 79.757 212.537 78.564V70.564C212.538 69.3709 213.013 68.2271 213.857 67.3835C214.7 66.5398 215.844 66.0653 217.037 66.064H225.037C226.23 66.0653 227.374 66.5398 228.218 67.3835C229.061 68.2271 229.536 69.3709 229.537 70.564V78.564C229.536 79.757 229.061 80.9008 228.218 81.7445C227.374 82.5881 226.23 83.0626 225.037 83.064V83.064Z" fill="#27AE60"/>
<path d="M225.037 108.064H217.037C215.844 108.063 214.7 107.588 213.857 106.744C213.013 105.901 212.538 104.757 212.537 103.564V95.564C212.538 94.3709 213.013 93.2271 213.857 92.3835C214.7 91.5398 215.844 91.0653 217.037 91.064H225.037C226.23 91.0653 227.374 91.5398 228.218 92.3835C229.061 93.2271 229.536 94.3709 229.537 95.564V103.564C229.536 104.757 229.061 105.901 228.218 106.744C227.374 107.588 226.23 108.063 225.037 108.064V108.064Z" fill="#CCCCCC"/>
<path d="M283.508 78.2007H246.158C245.363 78.1998 244.6 77.8835 244.038 77.321C243.475 76.7586 243.159 75.9961 243.158 75.2007V73.9268C243.159 73.1314 243.475 72.3688 244.038 71.8064C244.6 71.244 245.363 70.9276 246.158 70.9268H283.508C284.303 70.9276 285.066 71.244 285.628 71.8064C286.19 72.3688 286.507 73.1314 286.508 73.9268V75.2007C286.507 75.9961 286.19 76.7586 285.628 77.321C285.066 77.8835 284.303 78.1998 283.508 78.2007V78.2007Z" fill="#27AE60"/>
<path d="M375.727 81.4956H367.727C366.533 81.4943 365.39 81.0197 364.546 80.1761C363.702 79.3325 363.228 78.1887 363.227 76.9956V68.9956C363.228 67.8025 363.702 66.6587 364.546 65.8151C365.39 64.9715 366.533 64.4969 367.727 64.4956H375.727C376.92 64.4969 378.063 64.9715 378.907 65.8151C379.751 66.6587 380.225 67.8025 380.227 68.9956V76.9956C380.225 78.1887 379.751 79.3325 378.907 80.1761C378.063 81.0197 376.92 81.4943 375.727 81.4956V81.4956Z" fill="#CCCCCC"/>
<path d="M434.197 76.6323H396.848C396.052 76.6315 395.29 76.3151 394.727 75.7527C394.165 75.1903 393.849 74.4277 393.848 73.6323V72.3584C393.849 71.563 394.165 70.8005 394.727 70.238C395.29 69.6756 396.052 69.3593 396.848 69.3584H434.197C434.992 69.3593 435.755 69.6756 436.317 70.238C436.88 70.8005 437.196 71.563 437.197 72.3584V73.6323C437.196 74.4277 436.88 75.1903 436.317 75.7527C435.755 76.3151 434.992 76.6315 434.197 76.6323Z" fill="#CCCCCC"/>
<path d="M434.197 100.632H364.848C364.052 100.631 363.29 100.315 362.727 99.7527C362.165 99.1903 361.849 98.4277 361.848 97.6323V96.3584C361.849 95.563 362.165 94.8005 362.727 94.238C363.29 93.6756 364.052 93.3593 364.848 93.3584H434.197C434.992 93.3593 435.755 93.6756 436.317 94.238C436.88 94.8005 437.196 95.563 437.197 96.3584V97.6323C437.196 98.4277 436.88 99.1903 436.317 99.7527C435.755 100.315 434.992 100.631 434.197 100.632V100.632Z" fill="#27AE60"/>
<path d="M434.197 117.632H364.848C364.052 117.631 363.29 117.315 362.727 116.753C362.165 116.19 361.849 115.428 361.848 114.632V113.358C361.849 112.563 362.165 111.8 362.727 111.238C363.29 110.676 364.052 110.359 364.848 110.358H434.197C434.992 110.359 435.755 110.676 436.317 111.238C436.88 111.8 437.196 112.563 437.197 113.358V114.632C437.196 115.428 436.88 116.19 436.317 116.753C435.755 117.315 434.992 117.631 434.197 117.632V117.632Z" fill="#CCCCCC"/>
<path d="M434.197 134.632H364.848C364.052 134.631 363.29 134.315 362.727 133.753C362.165 133.19 361.849 132.428 361.848 131.632V130.358C361.849 129.563 362.165 128.8 362.727 128.238C363.29 127.676 364.052 127.359 364.848 127.358H434.197C434.992 127.359 435.755 127.676 436.317 128.238C436.88 128.8 437.196 129.563 437.197 130.358V131.632C437.196 132.428 436.88 133.19 436.317 133.753C435.755 134.315 434.992 134.631 434.197 134.632V134.632Z" fill="#27AE60"/>
<path d="M590.521 153.064H508.521C506.135 153.061 503.848 152.112 502.161 150.425C500.473 148.738 499.524 146.45 499.521 144.064V55.064C499.524 52.6779 500.473 50.3903 502.161 48.703C503.848 47.0158 506.135 46.0667 508.521 46.064H590.521C592.908 46.0667 595.195 47.0158 596.882 48.703C598.57 50.3903 599.519 52.6779 599.521 55.064V144.064C599.519 146.45 598.57 148.738 596.882 150.425C595.195 152.112 592.908 153.061 590.521 153.064V153.064ZM508.521 48.064C506.666 48.066 504.886 48.8042 503.574 50.1165C502.262 51.4288 501.524 53.2081 501.521 55.064V144.064C501.524 145.92 502.262 147.699 503.574 149.011C504.886 150.324 506.666 151.062 508.521 151.064H590.521C592.377 151.062 594.157 150.324 595.469 149.011C596.781 147.699 597.519 145.92 597.521 144.064V55.064C597.519 53.2081 596.781 51.4288 595.469 50.1165C594.157 48.8042 592.377 48.066 590.521 48.064H508.521Z" fill="#3F3D56"/>
<path d="M584.197 76.6323H546.848C546.052 76.6315 545.29 76.3151 544.727 75.7527C544.165 75.1903 543.849 74.4277 543.848 73.6323V72.3584C543.849 71.563 544.165 70.8005 544.727 70.238C545.29 69.6756 546.052 69.3593 546.848 69.3584H584.197C584.992 69.3593 585.755 69.6756 586.317 70.238C586.88 70.8005 587.196 71.563 587.197 72.3584V73.6323C587.196 74.4277 586.88 75.1903 586.317 75.7527C585.755 76.3151 584.992 76.6315 584.197 76.6323V76.6323Z" fill="#27AE60"/>
<path d="M584.197 100.632H514.848C514.052 100.631 513.29 100.315 512.727 99.7527C512.165 99.1903 511.849 98.4277 511.848 97.6323V96.3584C511.849 95.563 512.165 94.8005 512.727 94.238C513.29 93.6756 514.052 93.3593 514.848 93.3584H584.197C584.992 93.3593 585.755 93.6756 586.317 94.238C586.88 94.8005 587.196 95.563 587.197 96.3584V97.6323C587.196 98.4277 586.88 99.1903 586.317 99.7527C585.755 100.315 584.992 100.631 584.197 100.632Z" fill="#CCCCCC"/>
<path d="M584.197 117.632H514.848C514.052 117.631 513.29 117.315 512.727 116.753C512.165 116.19 511.849 115.428 511.848 114.632V113.358C511.849 112.563 512.165 111.8 512.727 111.238C513.29 110.676 514.052 110.359 514.848 110.358H584.197C584.992 110.359 585.755 110.676 586.317 111.238C586.88 111.8 587.196 112.563 587.197 113.358V114.632C587.196 115.428 586.88 116.19 586.317 116.753C585.755 117.315 584.992 117.631 584.197 117.632Z" fill="#27AE60"/>
<path d="M584.197 134.632H514.848C514.052 134.631 513.29 134.315 512.727 133.753C512.165 133.19 511.849 132.428 511.848 131.632V130.358C511.849 129.563 512.165 128.8 512.727 128.238C513.29 127.676 514.052 127.359 514.848 127.358H584.197C584.992 127.359 585.755 127.676 586.317 128.238C586.88 128.8 587.196 129.563 587.197 130.358V131.632C587.196 132.428 586.88 133.19 586.317 133.753C585.755 134.315 584.992 134.631 584.197 134.632Z" fill="#CCCCCC"/>
<path d="M283.508 103.201H246.158C245.363 103.2 244.6 102.883 244.038 102.321C243.475 101.759 243.159 100.996 243.158 100.201V98.9268C243.159 98.1314 243.475 97.3688 244.038 96.8064C244.6 96.244 245.363 95.9276 246.158 95.9268H283.508C284.303 95.9276 285.066 96.244 285.628 96.8064C286.19 97.3688 286.507 98.1314 286.508 98.9268V100.201C286.507 100.996 286.19 101.759 285.628 102.321C285.066 102.883 284.303 103.2 283.508 103.201Z" fill="#CCCCCC"/>
<path d="M225.037 133.064H217.037C215.844 133.063 214.7 132.588 213.857 131.744C213.013 130.901 212.538 129.757 212.537 128.564V120.564C212.538 119.371 213.013 118.227 213.857 117.383C214.7 116.54 215.844 116.065 217.037 116.064H225.037C226.23 116.065 227.374 116.54 228.218 117.383C229.061 118.227 229.536 119.371 229.537 120.564V128.564C229.536 129.757 229.061 130.901 228.218 131.744C227.374 132.588 226.23 133.063 225.037 133.064V133.064Z" fill="#27AE60"/>
<path d="M283.508 128.201H246.158C245.363 128.2 244.6 127.883 244.038 127.321C243.475 126.759 243.159 125.996 243.158 125.201V123.927C243.159 123.131 243.475 122.369 244.038 121.806C244.6 121.244 245.363 120.928 246.158 120.927H283.508C284.303 120.928 285.066 121.244 285.628 121.806C286.19 122.369 286.507 123.131 286.508 123.927V125.201C286.507 125.996 286.19 126.759 285.628 127.321C285.066 127.883 284.303 128.2 283.508 128.201Z" fill="#27AE60"/>
<path d="M530.518 72.0641C530.518 72.041 530.521 72.0187 530.521 71.9956C530.521 70.8137 530.289 69.6434 529.836 68.5515C529.384 67.4595 528.721 66.4674 527.885 65.6316C527.05 64.7959 526.058 64.133 524.966 63.6807C523.874 63.2284 522.703 62.9956 521.521 62.9956V72.0641H530.518Z" fill="#27AE60"/>
<path d="M520.523 73.0641V63.9956C518.745 63.995 517.008 64.5206 515.529 65.5061C514.05 66.4916 512.896 67.893 512.212 69.5335C511.528 71.174 511.346 72.9801 511.687 74.7243C512.028 76.4685 512.879 78.0725 514.13 79.3342C515.382 80.5959 516.979 81.4588 518.721 81.814C520.462 82.1692 522.27 82.001 523.915 81.3304C525.561 80.6598 526.972 79.5169 527.969 78.0458C528.966 76.5747 529.506 74.8413 529.519 73.0641H520.523Z" fill="#CCCCCC"/>
</g>
<defs>
<clipPath id="clip0">
<rect width="787.827" height="453.112" fill="white"/>
</clipPath>
</defs>
</svg>
